<svg xmlns="http://www.w3.org/2000/svg" width="32" height="32">
    <title>Apache Kafka</title>
    <!-- Origin: https://www.apache.org/logos/originals/kafka.svg -->
    <path fill="#1A1919" d="M12.895 2.844a1.95 1.95 0 0 0-1.391-.57 1.93 1.93 0 0 0-1.383.57h-.008a1.976 1.976 0 0 0 0 2.777l.008.008c.367.363.863.57 1.383.566.52.004 1.02-.203 1.39-.566l.008-.012c.368-.363.57-.863.567-1.383.004-.52-.2-1.02-.567-1.39Zm-1.391 26.86a1.98 1.98 0 0 0 1.39-.571l.008-.012a1.93 1.93 0 0 0 .567-1.383 1.95 1.95 0 0 0-.567-1.386h-.007a1.953 1.953 0 0 0-2.774 0h-.008a1.96 1.96 0 0 0-.57 1.386c0 .52.203 1.016.57 1.383l.008.012c.367.363.867.57 1.383.57m10.691-5.945a1.93 1.93 0 0 0 1.196-.91l.035-.067c.238-.453.285-.965.156-1.422a1.93 1.93 0 0 0-.918-1.195l-.027-.02a1.96 1.96 0 0 0-1.461-.175c-.504.129-.934.46-1.192.914a1.964 1.964 0 0 0 .715 2.683h.004c.469.274 1 .32 1.492.192m-8.68-9.781a2.84 2.84 0 0 0-4.019 0 2.82 2.82 0 0 0-.824 2.007c0 .79.312 1.5.824 2.016a2.85 2.85 0 0 0 4.02 0 2.85 2.85 0 0 0 .832-2.016 2.8 2.8 0 0 0-.832-2.007m-1.13-3.344a5.4 5.4 0 0 1 2.954 1.523h.004q.19.188.355.399l1.961-1.133a4.2 4.2 0 0 1-.062-2.41 4.2 4.2 0 0 1 1.972-2.563l.032-.023a4.23 4.23 0 0 1 5.75 1.57c.558.969.71 2.125.421 3.207a4.2 4.2 0 0 1-1.972 2.57l-.266.157h-.027a4.25 4.25 0 0 1-2.918.27 4.3 4.3 0 0 1-2.05-1.259l-1.958 1.13a5.45 5.45 0 0 1 0 3.835l1.957 1.125a4.17 4.17 0 0 1 2.05-1.254 4.18 4.18 0 0 1 3.212.422l.066.031v.004a4.22 4.22 0 0 1 1.906 2.54 4.2 4.2 0 0 1-.421 3.203l-.036.074-.007-.012a4.24 4.24 0 0 1-2.528 1.914 4.26 4.26 0 0 1-3.215-.422v-.008a4.23 4.23 0 0 1-1.968-2.566 4.17 4.17 0 0 1 .062-2.406l-1.96-1.13q-.167.207-.356.395l-.004.004a5.4 5.4 0 0 1-2.953 1.516v2.262c.8.172 1.535.57 2.113 1.148l.004.008a4.2 4.2 0 0 1 1.238 2.984 4.2 4.2 0 0 1-1.238 2.985l-.004.015a4.24 4.24 0 0 1-5.984 0h-.004v-.015a4.2 4.2 0 0 1-1.239-2.985 4.2 4.2 0 0 1 1.239-2.984v-.008h.004a4.2 4.2 0 0 1 2.113-1.148v-2.262a5.35 5.35 0 0 1-2.95-1.516l-.007-.004a5.407 5.407 0 0 1 0-7.66h.008a5.37 5.37 0 0 1 2.949-1.523V8.379a4.3 4.3 0 0 1-2.113-1.152h-.004v-.004a4.22 4.22 0 0 1-1.239-2.989c0-1.12.446-2.199 1.239-2.992h.004A4.23 4.23 0 0 1 11.504 0c1.168 0 2.223.477 2.996 1.242v.004h.004a4.2 4.2 0 0 1 1.234 2.988 4.2 4.2 0 0 1-1.234 2.989l-.004.007a4.33 4.33 0 0 1-2.113 1.149Zm11.005-1.504-.02-.024a1.97 1.97 0 0 0-2.672-.699h.004a1.96 1.96 0 0 0-.719 2.688l.012.011a1.94 1.94 0 0 0 1.18.899c.504.137 1.039.07 1.488-.195l.027-.008a1.975 1.975 0 0 0 .7-2.672"/>
</svg>
