<svg xmlns="http://www.w3.org/2000/svg" width="32" height="32">
    <title>Apache Airflow</title>
    <!-- Origin: https://www.apache.org/logos/originals/airflow-3.svg -->
    <path fill="#017CEE" d="M.766 31.531 15.8 16.121a.28.28 0 0 0 .031-.351c-.914-1.282-2.602-1.5-3.227-2.36-1.851-2.539-2.324-3.976-3.117-3.887a.26.26 0 0 0-.144.075l-5.43 5.566C.79 18.367.344 25.422.262 31.324a.293.293 0 0 0 .504.207"/>
    <path fill="#00AD46" d="m31.531 31.148-15.41-15.027a.27.27 0 0 0-.351-.035c-1.282.914-1.5 2.602-2.36 3.227-2.539 1.851-3.976 2.32-3.887 3.117a.26.26 0 0 0 .075.144l5.566 5.43c3.203 3.125 10.258 3.57 16.16 3.652a.293.293 0 0 0 .207-.504"/>
    <path fill="#04D659" fill-rule="evenodd" d="M15.164 28.004c-1.75-1.707-2.559-5.082.797-12.043-5.453 2.434-7.363 5.633-6.426 6.55Zm0 0"/>
    <path fill="#00C7D4" d="m31.148.387-15.03 15.41a.27.27 0 0 0-.032.351c.914 1.278 2.602 1.5 3.227 2.36 1.851 2.539 2.32 3.976 3.117 3.887a.26.26 0 0 0 .144-.075l5.43-5.566c3.125-3.203 3.57-10.258 3.652-16.16a.294.294 0 0 0-.508-.207"/>
    <path fill="#11E1EE" fill-rule="evenodd" d="M28.004 16.754c-1.707 1.746-5.082 2.558-12.047-.793 2.438 5.445 5.637 7.36 6.555 6.418Zm0 0"/>
    <path fill="#E43921" d="M.387.766 15.797 15.8a.28.28 0 0 0 .351.031c1.278-.914 1.5-2.602 2.356-3.227 2.543-1.851 3.98-2.32 3.89-3.117a.26.26 0 0 0-.074-.144l-5.57-5.43C13.55.79 6.496.344.594.262a.29.29 0 0 0-.278.18.3.3 0 0 0 .07.324"/>
    <path fill="#FF7557" fill-rule="evenodd" d="M16.75 3.914c1.75 1.703 2.563 5.082-.79 12.047 5.446-2.438 7.36-5.64 6.419-6.559Zm0 0"/>
    <path fill="#0CB6FF" fill-rule="evenodd" d="M3.914 15.164c1.703-1.75 5.082-2.559 12.047.797-2.438-5.453-5.64-7.363-6.559-6.426Zm0 0"/>
    <path fill="#4A4848" d="M16.633 15.95a.672.672 0 1 1-1.344.016.68.68 0 0 1 .32-.614.674.674 0 0 1 1.023.598m0 0"/>
</svg>
