<svg xmlns="http://www.w3.org/2000/svg" width="32" height="32">
    <title>Apache Hadoop</title>
    <!-- Origin: https://svn.apache.org/repos/asf/hadoop/logos/out_rgb/hadoop+elephant_rgb.pdf -->
    <path d="m3.7 19.063-.157.43-.305-.11.16-.434Zm-.157.43-.234.64-.309-.11.234-.64Zm-.234.64-.04.058-.113-.113Zm-.04.058-.515.512-.227-.23.516-.512Zm-.515.512-.457.453-.227-.23.457-.453Zm-.457.453-.113.11-.227-.235.113-.101Zm-.113.11c-.211.203-.25.242-.192.597l-.316.051c-.086-.523-.028-.582.281-.879Zm-.192.597c.051.297.149.59.293.86l-.289.148a3.1 3.1 0 0 1-.32-.957Zm.293.86q.224.422.559.757l-.23.227a3.6 3.6 0 0 1-.618-.836Zm.567.757c.3.301.789.676 1.304.872l-.113.304a4.3 4.3 0 0 1-1.422-.949Zm1.296.872c.36.136.72.18 1.028.046l.125.301c-.387.172-.836.121-1.262-.043Zm1.028.046.308-.136-.09.328-.156-.043Zm.219.192-.141.445-.305-.11.137-.421Zm-.141.445-.176.426-.297-.133.168-.402Zm-.176.426c-.273.602.016.914.457 1.117l-.137.293c-.597-.273-1-.71-.613-1.543Zm.457 1.117c.285.129.625.219.95.3l-.079.313c-.336-.09-.703-.18-1-.32Zm.95.3.226.06-.082.312-.223-.059Zm.226.06c.383.105 1.047.3 1.644.332l-.02.324c-.624-.043-1.308-.235-1.706-.344Zm1.644.332c.54.035 1.024-.055 1.133-.47l.313.083c-.164.613-.785.75-1.465.71Zm1.133-.47q.076-.269.106-.55l.324.027a3.3 3.3 0 0 1-.117.61Zm.106-.55q.023-.27-.012-.54l.32-.03c.024.199.032.398.016.597Zm-.012-.54.012-.081.148.066Zm.012-.081c.219-.484.308-.613.465-.848l.265.184c-.144.215-.226.336-.433.797Zm.465-.848.07-.105.27.183-.075.098Zm.07-.105c.125-.184.18-.297.2-.43l.32.043c-.028.18-.098.344-.25.57Zm.2-.43c.019-.133 0-.293-.028-.531l.316-.04c.035.266.055.438.031.614Zm-.028-.531-.02-.156.32-.04.02.157Zm-.02-.156-.023-.157.32-.05.024.164Zm-.023-.157-.031-.218.214.035-.023.16Zm.183-.183q.67.1 1.352.101v.325c-.469 0-.938-.04-1.398-.11Zm1.352.097c.45.004.895-.023 1.344-.078l.039.317q-.692.087-1.383.082Zm1.344-.078.097.297-.078-.137Zm.097.297-.851.457-.149-.289.84-.445Zm-.851.457-.078.04-.145-.29.074-.039Zm-.078.04c-.34.171-.348.542-.22.929l-.308.094c-.164-.528-.144-1.043.383-1.313Zm-.22.929c.134.437.427.898.61 1.18l-.273.175c-.188-.296-.496-.785-.645-1.261Zm.61 1.18c.38.586.739 1.082 1.149 1.336l-.168.273c-.469-.285-.852-.809-1.258-1.434Zm1.149 1.336c.39.238.847.261 1.453-.067l.152.285c-.726.395-1.285.356-1.773.051Zm1.453-.067c.285-.148.379-.32.508-.547l.285.16c-.16.274-.274.477-.64.676Zm.508-.547.191-.312.266.18-.172.292Zm.191-.312.055-.055.082.145Zm.055-.055c.101-.047.5-.383.894-.707l.203.25-.937.742Zm.894-.707.504-.414.203.254-.504.41Zm.504-.414.121-.102.102.125-.125.106Zm.223.023a.57.57 0 0 0 .3.157l-.074.316a.86.86 0 0 1-.48-.262Zm.3.157c.16.039.368.058.622.078l-.024.32a5 5 0 0 1-.672-.082Zm.622.078c.199.015.832.012 1.242.012v.324c-.418 0-1.066 0-1.266-.016Zm1.242.012.3.003v.32h-.3Zm.3.003c.384 0 .688-.015.887-.132l.157.285c-.262.148-.61.168-1.043.168Zm.887-.132c.18-.102.293-.305.317-.688l.324.024c-.035.5-.2.789-.484.949Zm.317-.688c.015-.195.02-.312 0-.41l.312-.07c.032.14.028.28.012.5Zm0-.41c-.024-.102-.078-.203-.172-.375l.281-.156c.11.195.172.316.203.46Zm-.172-.375-.02-.074.16-.004Zm-.02-.074-.02-.696.321-.011.024.699Zm-.02-.696-.019-.699.325-.008.015.696Zm-.019-.699c0-.219-.03-.437-.082-.648l.313-.078q.087.356.094.718Zm-.082-.648a4 4 0 0 0-.226-.625l.3-.125.239.672Zm-.226-.625-.188-.496.301-.11.188.48Zm.113-.606-.152.047Zm-.3.11-.317-.75.293-.149c.137.274.23.524.324.785Zm-.317-.75-.012-.098.16.031Zm-.012-.098.04-.25.32.04-.04.265Zm.04-.25.027-.262.324.028-.031.273Zm.027-.262.03-.336.247.235-.117.117Zm.273-.101.477.457-.223.234-.477-.457Zm.477.457.347.34-.222.238-.352-.344Zm.347.34c.258.25.492.472.75.625l-.164.28c-.289-.167-.539-.41-.808-.667Zm.75.625c.274.164.582.238.899.218l.015.32a1.83 1.83 0 0 1-1.078-.257Zm.899.218c.398-.02.824-.191 1.18-.453l.19.262c-.405.3-.902.492-1.355.512Zm1.18-.453c.335-.25.605-.578.714-.937l.309.09c-.13.433-.45.82-.832 1.109Zm.714-.937.113-.375.31.093-.114.372Zm.113-.375.133-.438.309.098-.133.433Zm.133-.438.043-.136.14.027-.03.156Zm.184-.11a7.3 7.3 0 0 0 2.05.102l.036.317a7.4 7.4 0 0 1-2.145-.098Zm2.05.102c.602-.062 1.184-.218 1.684-.484l.149.285c-.535.29-1.157.453-1.797.52Zm1.684-.484c.727-.387 1.278-.965 1.672-1.648l.281.16c-.425.734-1.015 1.351-1.804 1.773Zm1.672-1.648.14.078Zm0-.004c.453-.778.703-1.696.8-2.649l.321.032c-.101.996-.367 1.964-.84 2.785Zm.8-2.649c.079-.773.036-1.832-.124-2.851l.316-.047c.168 1.047.211 2.129.13 2.93Zm-.124-2.851c-.145-.899-.379-1.774-.703-2.395l.285-.148c.34.652.586 1.558.734 2.492Zm-.703-2.39a.7.7 0 0 0-.125-.153l.23-.23q.105.105.18.234Zm-.125-.15a1.5 1.5 0 0 0-.555-.34l.102-.296c.25.086.48.226.675.41Zm-.555-.34c-.2-.066-.398-.085-.543-.01l-.148-.286c.23-.121.523-.102.793-.008Zm-.543-.01a.5.5 0 0 0-.082.058l-.226-.227a.5.5 0 0 1 .16-.117Zm-.082.058c-.133.136-.246.304-.363.476l-.266-.183c.125-.184.25-.368.399-.52Zm-.363.476c-.153.223-.309.446-.5.617l-.207-.246c.168-.144.308-.351.445-.554Zm-.5.617c-.246.207-.524.32-.79.426l-.12-.3c.242-.102.5-.2.703-.372Zm-.79.426-.116.047-.125-.297.12-.05Zm-.116.047-.149.063-.062-.157.156-.05Zm-.215-.094a4 4 0 0 0-.38-.77l.274-.171q.252.394.41.828Zm-.38-.77a6 6 0 0 0-.503-.687l.242-.207q.294.343.535.723Zm-.503-.687a3 3 0 0 0-.438-.414l.2-.254c.168.13.328.27.488.465Zm-.438-.414a8 8 0 0 0-.52-.347l.173-.274.543.363Zm-.52-.347c-.566-.356-1.034-.77-1.519-1.192l.211-.242c.473.414.934.82 1.48 1.16Zm-1.519-1.192-.636-.547.203-.25.644.555Zm-.636-.547c-1.067-.879-2.051-1.304-3.102-1.37l.023-.321c1.118.066 2.165.52 3.29 1.445Zm-3.102-1.37c-1.055-.067-2.187.23-3.527.8l-.125-.3c1.386-.583 2.562-.888 3.672-.817Zm-3.527.8a5.1 5.1 0 0 0-1.508.95l-.219-.235a5.2 5.2 0 0 1 1.602-1.016Zm-1.508.95c-.41.378-.762.827-1.152 1.35l-.258-.19c.406-.54.77-1 1.203-1.395Zm-1.152 1.35-.051.063-.074.004-.008-.16Zm-.118.067c-.226.012-.414.04-.601.117l-.121-.304a2.1 2.1 0 0 1 .703-.133Zm-.601.117c-.188.07-.387.2-.625.414l-.211-.242c.27-.242.5-.386.715-.476Zm-.625.414-.535.493-.223-.235.55-.508Zm-.535.493-.11-.118.11.114Zm0 0-.512.515-.234-.222.523-.528Zm-.512.515-.094.047-.023-.156Zm-.094.047c-1.262.203-2.285.426-3.199.781l-.117-.304c.933-.36 1.98-.586 3.27-.793Zm-3.199.781c-.906.352-1.707.836-2.531 1.563L5.8 11.3c.855-.758 1.683-1.262 2.625-1.625ZM6 11.54c-.32.281-.613.598-.871.934l-.258-.196q.41-.538.914-.984Zm-.871.934c-.25.332-.473.683-.656 1.054l-.29-.148q.295-.58.688-1.102Zm-.656 1.054-.024.032-.12-.11Zm-.024.032-.562.59-.215-.243c.187-.172.36-.37.539-.562Zm-.562.59a2.5 2.5 0 0 1-.688.44l-.12-.304c.218-.082.41-.219.593-.379Zm-.688.44-.058-.152Zm0 0c-.21.083-.312.122-.426.071l.125-.297c.004 0 .055-.027.184-.078Zm-.426.071.063-.148Zm0 0c-.12-.05-.148-.152-.23-.351l.3-.114c.044.114.044.164.055.168Zm-.23-.351-.043-.114.098-.074.097.133Zm.05-.184c.294-.223.325-.672.352-1.102l.32.02c-.027.5-.062 1.023-.48 1.336Zm.352-1.102.012-.156.32.024-.011.156Zm.012-.156.012-.152.152.004-.008.164Zm.164-.148c.27.015.39.203.524.402l-.274.18c-.086-.133-.16-.25-.262-.25Zm.524.402.113.164-.254.203a3 3 0 0 1-.133-.191Zm.148.305-.074.328-.211-.266.129-.101Zm-.316-.074c.05-.243.097-.563.039-.825l.316-.07c.07.32.023.691-.035.969Zm.039-.825c-.04-.164-.118-.308-.27-.386l.149-.29c.246.13.378.352.433.602Zm-.27-.386-.129-.067.055-.136.148.058Zm-.074-.2.098-.242.3.117-.093.235Zm.098-.242.148-.394.3.105-.152.406Zm.273-.5.273-.047-.093.258-.153-.05Zm.05.317c-.312.05-1 .441-1.5.96l-.238-.226c.551-.566 1.325-.988 1.684-1.047Zm-1.5.96a2.3 2.3 0 0 0-.433.598l-.293-.136c.113-.243.29-.473.488-.684Zm-.433.598c-.09.2-.137.399-.101.598l-.32.047a1.33 1.33 0 0 1 .128-.785Zm-.101.598c.03.176.125.36.304.531l-.222.23a1.28 1.28 0 0 1-.403-.706Zm.304.531.051.078-.152.04Zm.051.078.117.434-.304.094-.125-.446Zm.117.434q.058.175.133.34l-.289.14a3 3 0 0 1-.148-.386Zm.133.34c.117.242.305.39.512.457l-.098.308a1.13 1.13 0 0 1-.695-.625Zm.512.457c.25.078.535.05.808-.047l.114.297c-.336.129-.696.16-1.02.058Zm.808-.047.278-.113-.063.296-.16-.035Zm.215.183a6 6 0 0 0-.14 1.13l-.32-.016q.016-.598.144-1.184Zm-.148 1.133c-.016.414 0 .875.047 1.422l-.325.024q-.07-.727-.046-1.457Zm.047 1.422.039.383-.317.043-.047-.402Zm.039.383.066.398-.316.063-.067-.41Zm.066.398-.004.09-.152-.05"/>
    <path fill="#FEEB50" fill-rule="evenodd" stroke="#1F1917" stroke-miterlimit="10" stroke-width=".048" d="m11.793 9.297-2.129.351-1.941.848-1.649 1.04-1.566 1.913-.89.942-.856.312-.227-.555.395-.57.093-.805.262.008.29.266-.079-.824-.316-.215.007-.309-.761.43-.692.812-.14.73.297.583.273.988.563.266.59-.031.554-.325-.371 1.883.371 2.102-.406.972-1.348 1.442.242.867.641 1 1.2.844.636.086.707.023-.441 1.813 1.62.664 2.02.265.692-.449.054-1.227.774-1.273.05-1.012 1.864.133 1.726-.156-1.726 1.035.293 1.25 1.09 1.7 1.062.456.852-.351.351-.692 1.778-1.355.351.293 2.793.101.559-.449.054-.797-.187-.351-.133-2.153-.93-1.863.157-.824.558.293 1.57 1.46.77.052.852-.348.851-.637.426-1.383 2.5.157 1.516-.582 1.226-1.145.875-1.648.211-1.942-.183-2.258-.477-2.023-.48-.637-.665-.215-1.171 1.278-1.063.37-.93-1.538-.933-.852-.5-.32-2.02-1.676-1.625-.879-1.62-.129-1.888.317-1.648.61-1.14.933-.907 1.09-.93.265Zm0 0"/>
    <path fill="#FDF7BA" fill-rule="evenodd" d="M5.621 14.098c-1.82 2.125-1.422 4.703-.91 7.23l-.809-2.043-.3-1.875.09-1.914.761-1.828 1.152-1.703 1.786-1.488 1.957-.813 2.3-.297-2.128 2.426c-1.707.555-2.715.926-3.899 2.3"/>
    <path fill="#FDF7BA" fill-rule="evenodd" d="M14.2 7.621c-1.266 1.238-1.958 2.168-2.762 3.613L9.605 14.29c-.304.516-.332.95-.43 1.547l-.89-1.063.426-1.28 1.445-2.595 3.063-3.02.98-.25m6.258-3.07c-1.012.383-2.7.508-2.816 1.672-.086.829.062 1.243.558 2.118-1.226-1.274-1.535-1.078-3.914-.68l1.024-1.45 1.785-1.105 2.3-.511 1.067-.043"/>
    <path fill="#EDD749" fill-rule="evenodd" d="M23.258 20.309c.336.207.332.363.273.503l.801-.32.516-.699.386-.992-.488-.371-2.152.273-.16.434.054.62.196.364.32.16.254.024m-.2-3.672c-1.074.312-1.07.398-1.386 1.465.422-.672.73-1.012 1.387-1.461m7.156-7.989c-.192.09-.375.133-.496.305-.258.379-.48.695-.907.961a2.8 2.8 0 0 1-.66.29c-.187.058-.304.007-.465.12l.286.051h.629l.777-.48.457-.48zm-17.14 2.387c-.427 1.16-.798 2.156-1.438 3.203a9.6 9.6 0 0 0 1.789-2.64c.187-.387.219-.852.73-.676.02.387.098.777.125 1.168.274-1.977 1.051-2.8 2.852-3.563l-1.531.18-1.442.32-.71 1.024-.391.98m3.5-.039c.39 1.828.953 3.586 1.195 5.45.156 1.206.176 1.785-.434 2.831-.664-.046-1.078.032-1.718.239-2.559.84-4.028 2.078-5.754-.41l1.656.777 1.172-.23 2.082-1.212 1.62-.32.524-2.191-.386-2.899-.051-1.37.09-.665m4.41 11.328c-.219 1.489.5 2.29.2 2.696-.087.12-.196.32-.321.375-.453.203-1.07-.032-1.114.082h-1.48l-.594-.254.914-1.07.89-1.946.571-1.96h.297l.64 2.077"/>
    <path fill="#EDD749" fill-rule="evenodd" d="M18.477 17.996c.12.676.332.836.648 1.488-.21 1.067-.55 2.34-.96 3.278a2.6 2.6 0 0 1-.614.922c-.504.511-1.047.984-1.613 1.418-.422.324-.715.164-1.227.09-.223.398-.285.62-.688.82-.62.312-1.18-.356-1.668-.75l1.06 1.648.73.688.617.093.82-.507.434-.817.914-.687 1.12-.961.708-1 .64-1.188.82-2.465.071-.937-1.027-.457-.785-.668m-8.192 4.75c1.152 0 2.371-.067 3.426-.55a9.6 9.6 0 0 1 .96-1.208c-.331.629-.437.984-.523 1.692l-.347.503-2.602.067-.851-.094-.09-.09.023-.32m-.156-.805-.09-.808c-.195 1.183-.148 1.976-.7 3.039-.41.472-.91.902-1.483 1.133.05.289.062.472.035.687-.102.766-1.64.426-2.27.398l3.04.782.687-.274.23-1.324.637-1.187.113-.735Zm-1.707-6.687c-.031.578-.07.816.184 1.328.324.648.722 1.25 1.074 1.898l.11-1.277-1.368-1.945m-4.695 4.351-.293.63c.27.917.511 1.5 1.03 2.3-.093.324-.16.465-.366.73a8 8 0 0 0-1.32-.086L4.3 24.38l.754-.14.754-.75-1.075-1.669Zm26.496-11.27c.308 1.4.707 2.688.672 4.122-.051 1.754-.387 3.976-2.016 5.035-1.824 1.187-3.96.625-5.96.113l2.444 1 2.282.117 1.554-.457 1.211-1 .914-1.918.34-2.218-.273-2.168-.5-2.149-.672-.476M3.023 12.512c-.824.539-1.156.773-1.062 1.773l.25.895.348.238.433.145.785-.184.399-1.25-1.11.547h-.261l-.29-.442.352-.515.184-.98.238.073.29.227-.044-.516-.191-.328-.2-.168zm18.558-7.864c.734.68 1.637 1.274 2.223 2.11.226.32.48.484-.004.941.512-.148.703-.129 1.11-.082.745.094 1.44 1.149 1.487 1.91-.011.067-.207.23-.785.387-.011.024-.324-.043-.312-.02.058.16.137.188.258.262.027.188.043.465.168.664q.54-.005 1.07.106c.121.195.101.394.09.59l.41-.067-.113-.933.367-.618-.524-1.187-1-.965-.101-.004-1.125-.691-1.848-1.508-1.367-.895m1.234 5.63c-.039.066-.097.171-.172.25.305.288.454.484.567.89l-1.04.516-.878.843c-.387-.21-.48-.37-.664-.765-.223.058-.426.113-.602.047a.5.5 0 0 0 .293-.094l.563-.582.984-.746.649-.211c.082-.035.218-.114.304-.149"/>
    <path fill="#EDD749" fill-rule="evenodd" d="M23.773 11.305c-1.097.597-2.152 1.195-2.714 2.312 0-1.422 1.433-2.055 2.718-2.312M20.84 8.496c-.817.559-1.395 1.684-1.324 2.781-.262-.953-.172-1.851.652-2.5l.414-.203.262-.078"/>
    <path fill-rule="evenodd" d="m22.398 16.953.649-.308-.66.12c-.465.079-.52.192-.59.645l-.117.7.308-.762c.11-.25.172-.266.414-.395M13.801 5.191c.363-.543.574-.722 1.133-1.07-.758.184-.907.328-1.133 1.074m-.121 1.196c.64-1.278 1.12-1.75 2.457-2.383-1.512.37-1.953.633-2.457 2.383M.016 13.07c.14-.645.27-.887.664-1.415-.64.453-.723.637-.664 1.414m14.297 10.746-.06-.468a4 4 0 0 1-.01-.797l.066-.824c-.082.28-.239.558-.32.84l-.075.285a9.4 9.4 0 0 1-3.574.046l-.246-1.238c-.024.371-.012 1.399-.016 1.973 0 .441-.02.594-.246.969-.215.355-.3.433-.602 1.035.028.375.028.625-.074.98-.168.602-1.847.137-2.289.016-.547-.149-1.676-.371-1.39-1.102.25-.64.41-1.316.53-2.21-1-1.442-1.933-3.415-2.109-5.165-.14-1.36-.05-2.203.239-3.023.465-1.317 1.117-2.457 2.164-3.375 1.41-1.242 2.726-1.735 4.793-2.051-.5.55-.992 1.14-1.524 1.773-.543.637-.867 1.282-1.207 1.98-.476.966-.468 1.33.164 2.177.543.726.836 1.058 1.07 1.77-.195.402-.265.75-.331 1.296.664.727 1.16 1.227 1.8 1.379.633.148 1.16.121 1.73-.168 1.255-.644 2.423-1.477 3.84-1.512.657-1.613.59-2.96.274-4.52-.215-1.066-.3-2.081-.367-3.167-.266 1.12-.316 2.101-.117 3.219.234 1.351.422 2.832-.242 4.015-1.282.098-2.383.875-3.54 1.477-.464.238-.945.262-1.464.12-.477-.132-.797-.448-1.313-1.038-.008-.598.125-.871.399-1.41.441-.868.925-1.672 1.457-2.528-.649.79-1.27 1.45-1.782 2.235-.199-.559-.476-.84-.941-1.47-.453-.616-.504-.886-.16-1.6.34-.72.629-1.344 1.21-1.97 1-1.085 1.923-2.292 3.02-3.359.594-.578.836-.558 1.63-.68.714-.109 1.41-.25 2.136-.413-.7.066-1.387.09-2.07.109h-.024c.68-.867 1.067-1.348 2.164-1.82 2.7-1.172 4.414-1.301 6.535.484.547.46 1.028.906 1.586 1.305a1.9 1.9 0 0 0-.605.148c.277-.055.605 0 .898.05.086.056.168.106.254.153.39.235.617.363.88.73.276.383.519.794.722 1.22l-.352-.122a.75.75 0 0 0-.707.043l-.02.008a3.3 3.3 0 0 1-.777.266 1 1 0 0 0 .489.004l.05-.012a.74.74 0 0 0-.02.726.4.4 0 0 0 .079.125q-.158.059-.316.13a4.8 4.8 0 0 1 1.449-.024l.101.484-.183.012-.016.004c-.234-.188-.492-.152-.851-.074-1.075.25-.82.847-1.317 1.754.516-.63.477-1.282 1.313-1.48.203-.048.328-.106.46-.087-.238.121-.445.317-.523.547-.234.652-.09 1.203-.34 1.805.313-.543.332-1.07.61-1.64.101-.2.472-.532.703-.54l.187-.004c.047.36.086.719.067 1.016a12 12 0 0 1-.266 1.652c.285-.363.41-1.133.535-1.676.13-.566.102-1.246-.015-1.851-.149-.832.703-.7 1.203-1.09.363-.285.617-.75.953-1.074.332-.324.855.148.984.465.57 1.375.828 3.535.68 4.925-.172 1.551-.922 3.25-2.29 4.012-1.75.977-3.808.383-5.542-.2-.371-.124-.633-.308-.953-.51.086.398.125.823.008 1.218-.188.633-.489 1.668.37 1.86.329.07.477.062.934-.177-.265.07-.547.075-.816.016a.53.53 0 0 1-.418-.363c.078.058.21.09.437.148.637.157 1.243-.152 1.36-.601.07-.254.062-.395.207-.75.129.039.27.078.406.113l-.238.773c-.2.668-1 1.204-1.703 1.192-.649-.012-1.067-.418-1.512-.817l-.906-.804a6.9 6.9 0 0 1-2.211-1.11c.535.63.898.98 1.648 1.293-.11 1.106-.496 1.914-.82 2.97-.149.48-1.32 2.401-1.652 2.585-.235.137-1.68 1.352-1.95 1.516-.203.273-.383.644-.687.804-.934.493-1.531-.449-2.031-1.246-.227-.36-.864-1.406-.309-1.699.523-.277.816-.477 1.344-.824.082.144.215.277.304.422Zm3.238 1.688c-.477.379-1.266 1.047-1.418 1.137-.281.414-.313.675-.762.914-1.324.722-2.031-.114-2.82-1.325-.375-.574-1.192-1.898-.324-2.343.367-.188.644-.328.921-.489-.91.114-1.804.114-2.738-.023l.043.316c.059.508.082.664-.195 1.07-.203.302-.278.391-.52.934.047.383.016.778-.101 1.149-.274 1.027-2.192.465-2.977.25-.937-.25-2.281-.489-1.73-1.696.129-.285.23-.574.308-.851-.824.363-1.965-.41-2.511-.953a3.15 3.15 0 0 1-.895-1.707c-.086-.496-.008-.5.348-.848l.976-.965.395-1.066a7 7 0 0 1-.114-.805c-.101-1.094-.062-1.879.094-2.594-.57.22-1.23.118-1.52-.492-.109-.226-.175-.465-.261-.805-1.273-1.23 1.113-2.84 1.813-2.964-.079.226-.168.437-.243.64.47.25.414.946.313 1.395-.168-.215-.266-.5-.516-.508-.035.508-.027 1.07-.426 1.367.118.317.11.317.45.184.476-.18.832-.586 1.191-.98a6.7 6.7 0 0 1 1.566-2.032c1.676-1.488 3.258-1.969 5.809-2.379.34-.36.7-.7 1.07-1.027.508-.453.84-.543 1.32-.567.801-1.07 1.43-1.812 2.727-2.363 2.73-1.148 4.613-1.203 6.805.602.723.597 1.34 1.226 2.133 1.726.402.25.691.434 1 .793.386.457.699.918.914 1.504.285-.113.605-.223.863-.445.34-.29.55-.766.863-1.078.41-.418 1.352.082 1.559.48.707 1.352.996 3.852.844 5.336-.184 1.84-.942 3.57-2.559 4.434-1.098.59-2.574.644-3.836.406l-.25.805c-.25.808-1.207 1.468-2.043 1.507-.8.04-1.238-.375-1.765-.886l-.829-.797a6 6 0 0 1-.07.523c.219.43.32.809.508 1.25.2.489.3.813.32 1.332l.035 1.395c.207.363.223.457.2.875-.063.887-.551.969-1.364.965-.27-.004-1.3.004-1.55-.016-.52-.035-.86-.074-1.04-.289Zm2.742-4.836c-.164.586-.387 1.137-.586 1.766-.191.601-1.164 2.34-1.738 2.761.11.082.316.114.683.149.254.02 1.274.023 1.532.027.562.012.777-.027.832-.672.03-.312.004-.37-.153-.648l-.039-1.473c-.015-.465-.105-.73-.285-1.168-.113-.258-.172-.5-.246-.742m-17.152-8.03c.125-.016.199.054.304.148-.02-.23-.062-.402-.226-.5a3 3 0 0 0-.082.352Zm.793 1.687c-.09.239-.176.485-.254.727l-.04.125c-.48.207-1.113.336-1.347-.168-.117-.25-.184-.488-.27-.797-.793-.82.391-1.906 1.036-2.293-.094.2-.16.352-.2.508-.195.676.086 1.285-.527 1.773.29.582.277.817.95.547.257-.105.472-.25.663-.422Zm-.184 5.52c.363 1.258.984 2.5 1.672 3.543v.015c-.043.176-.094.356-.195.493-.493.656-1.743-.305-2.102-.676-.395-.403-.66-.883-.723-1.332-.047-.328-.004-.336.227-.567l.922-.933.203-.543ZM27.04 9.727a.8.8 0 0 1 .163.242c.024-.02.047-.035.07-.055l-.09-.191-.148.004ZM21.015 12a.86.86 0 0 1-.094-.414c-.238.187-.496.363-.762.465.367-.328.867-1.102 1.227-1.344.41-.277.972-.223 1.449-.45-.164.15-.371.27-.586.38a.98.98 0 0 1 .64.82c.294-.094.598-.145.903-.148-.95.265-1.969.894-2.672 1.722.078-.21.188-.41.324-.586a.96.96 0 0 1-.433-.453ZM16.59 8.547q-.745.294-1.52.488c-.472.617-.75.934-.867 1.762-.125-.813-.152-.961.211-1.57-.101.054-.2.125-.34.246-.5.433-1.168 2.129-1.43 2.738.168-.73.692-2.559 1.227-3.09.356-.348.438-.34.934-.387Zm11 1.773c.426.04.672.106 1.047-.082.715-.355 1.242-.933 1.582-1.62-.207.823-.63 1.519-1.5 1.827-.422.153-.703 0-1.133-.125Zm-8.203.078c.164-.714.449-1.398 1.554-1.93-1.472.368-1.746.981-1.554 1.93M.352 14.234c.125-1.425.402-2.039 1.418-3.113-1.282.895-1.594 1.3-1.418 3.113"/>
    <path fill="#EDD749" fill-rule="evenodd" d="M21.2 12.227a.416.416 0 0 1 .195-.551.42.42 0 0 1 .554.195l.02.059c-.2.148-.375.324-.528.52a.47.47 0 0 1-.242-.223m4.602-1.778a.3.3 0 0 1 .105-.21.3.3 0 0 1 .223-.067.3.3 0 0 1 .238.152.32.32 0 0 1 .016.285c-.164.028-.32.075-.477.13a.4.4 0 0 1-.105-.29"/>
</svg>
