<svg xmlns="http://www.w3.org/2000/svg" width="32" height="32">
    <title>Apache Spark</title>
    <!-- Origin: https://www.vectorlogo.zone/logos/apache_spark/apache_spark-icon.svg -->
    <path fill="#E25A1C" fill-rule="evenodd" d="m24.426 22.172-.149-.313-3.183-6.035c-.106-.203-.094-.32.047-.492l5.039-5.918a.5.5 0 0 0 .136-.262l-1.472.383-6.106 1.621c-.191.055-.277-.004-.37-.16l-3.47-5.777a.85.85 0 0 0-.253-.285l-.278 1.543-.969 5.449-.101.59c-.016.191-.113.257-.281.308l-7.192 2.274a.8.8 0 0 0-.32.18l5.918 2.347-.176.137-3.68 2.379a.39.39 0 0 1-.43.035l-4.398-1.961c-.656-.29-1.25-.684-1.707-1.246-1.043-1.274-.836-2.727.551-3.61a6.5 6.5 0 0 1 1.484-.675l7.063-2.243c.195-.058.289-.152.324-.363l.961-5.45c.18-.972.274-1.972.742-2.855.184-.335.399-.68.66-.964.934-1.036 2.239-1.079 3.227-.09.336.336.625.73.871 1.133l3.223 5.355c.125.211.238.258.472.195l7.895-2.101a3.85 3.85 0 0 1 1.648-.098c1.211.23 1.743 1.156 1.332 2.324-.183.528-.507.985-.863 1.41l-5.512 6.477c-.148.176-.156.305-.05.5l3.28 6.219c.263.496.462 1.012.466 1.582.015 1.297-.934 2.36-2.22 2.547-.722.105-1.394-.047-2.07-.258l-4.953-1.508c-.152-.047-.21-.105-.238-.27l-.597-3.484c-.008-.027.003-.066.007-.133l5.684 1.567"/>
    <path fill="#E25A1C" d="m11.414 17.625 1.05.457-1.167 9.281 6.367-7.058 1.074.3 1.325 4.024-1.72-.61-4.445 4.805s-1.992 2.059-3.07 1.707c-1.074-.347-1.984-1.308-2.09-3.023-.101-1.719-.554-6.621-.554-6.621L6.012 19.32Zm0 0"/>
    <path fill="#E25A1C" d="M8.184 20.887s-.961 10.613.91 10.968c1.87.352-.203-.05-.203-.05s1.062 1.21 5.257-3.29l4.196-4.495-8.39 4.953c.202-.254 1.058-8.844 1.058-8.844Zm0 0"/>
</svg>
