<svg xmlns="http://www.w3.org/2000/svg" width="32" height="32">
    <title>Apache Hive</title>
    <!-- Origin: https://www.apache.org/logos/originals/hive.svg -->
    <path fill="#FDEE21" fill-rule="evenodd" d="M18.313 4.676C18.03 3.906 8.379.156 8.258.566c-1.774.465-2.496 2.508-3.715 3.797l-2.707-.152C.64 5.742.016 7.312.44 8.94c1.528 2.07 3.305 3.832 4.41 6.434.09 1.227 5.305.129 6.426-.113-1.527 1.093-2.859 2.789-2.289 7.672.524 2.293.88 4.855 5.516 7.449.61.34 1.867.734 2.648 1.023.746.34 1.618.48 4.078-.27 1.426-.613 2.965-.984 4.356-1.597l-1.676.078c-2.305.055-4.086.227-4.633-.418l-2.125-3.668 1.239-2.402c1.71.176 2.28 1.566 3.789 2.094l1.78-1.317c5.169 3.047 7.224-1.937 7.813-5.816-.062-1.582-3.421.496-3.218-.246.082-1.696-1.305-3.918-2.196-5.649l1.032-4c.472-.422-2.172-4.875-4.332-5.43-1.891-.488-4.747 1.91-4.747 1.91m0 0"/>
    <path fill="#C8C037" fill-rule="evenodd" d="M26.8 13.184c.02.433.02.953.06 1.28-.008.25-.196.259-.348.31l1.004.367c.203.336.363.675.523 1.011.188.825.05.852-.074.91-.367.004-.73.004-1.07-.07.152.082.183.14.199.246.031.188-.09.446-.293.696.297.164.84.328 1.246.48l.457-1.023c-.207-1.504-.84-2.887-1.703-4.207m1.879 5.039c.558.23 1.328.164 2.394-.387.16-.113.309-.043.024.14-1.399 1.258-2.07.63-2.418.247"/>
    <path fill="#C8C037" fill-rule="evenodd" d="M31.184 17.672c.164.316.066.574.011.844-.175 1.363-.601 2.441-1.433 3.566-2.711 4.36-5.446 1.633-7.63-.14l-.902 2.257c-.05.2-.246.352 1.16.977l1.438-1.02c5.477 4.168 9.356-5.832 7.356-6.484m-8.391 3.898c-.367.024-1.469.399-1.52.614l.508-.754Zm-.719-4.625c.067 0 .395.086.356.067-.047-.024-.004.457.097.707l-.394.867c.758-.879 1.96-.82 3.074-.934l-.531-.328c.09-.308-.02-.55-.067-.812Zm1.863-2.597c-.812.25-1.593.66-2.113 1.53.395-1.437.477-1.382.606-1.452.558-.25 1.02-.094 1.511-.078"/>
    <path fill="#FCF6A0" fill-rule="evenodd" d="M19.59 31.156c-.988 1.086-3.184-.082-5.012-.68-4.637-2.949-5.547-5.73-5.61-8.449-.234-3.906.962-6.172 2.477-6.707-1 1.934-1.472 5.403-1.004 7.985.375 1.433.383 3.855 2.786 5.156 1.175.66.859 1.176 1.656 1.797.87.68 3.3 1.324 4.707.898m1.469-18.035c-1.668-2.367-4.012-3.254-6.657-3.351.528-.176 1.059-.262 1.59-.516.13-.14.086-.379.04-.621-2.548-.668-4.153-1.492-6.188-2.25l5.492 1.316c3.707.145 3.387 1.059 5.723 5.418m1.785-1.14c-1.23-1.758-2.426-3.891-4.047-5.254C14.879 4.957 11.004 3.64 6.46 2.449L7.91.586c4.82 1.098 9.347 2.941 13.398 5.973.687 1.738 1.148 3.472 1.535 5.418m2.488-3.11s-.691-1.547-1.027-2.14c-.782-.864-1.176-2.477-2.774-3.239.504.14.852-.023 1.883.91l1.625 3.086Zm.86 2.688c.16-1.344.464-3.5.113-4.352L23.39 3.324c-.16-.148-.278-.355-.403-.511 1.371.355 2.797 1.304 4.727 5.066Zm0 0"/>
    <path fill-rule="evenodd" d="M20.434 11.715c-.543-.434-1.028-1.95-1.856-2.266-.762-.062-1.047-.3-2.05-.097.363-.18.71-.418 1.097-.543.262-.063.512.007.762.043.062-.028.101-.067.082-.122-1.008-.625-3.086-.636-4.485-.992 1.625.055 3.422-.035 4.649.356.98.875 1.3 2.52 1.805 3.62Zm2.984-7.32c.227.02 1.441 1.945 1.496 2.261.102.7.352 1.48.418 2.215-.2-.7-.418-1.406-.691-2.105-.082-.192-.282-.63-.84-1.246-.262-.434-.317-.778-.383-1.125m4.113 10.464h-.52l.579.153Zm-3.543-.515c-.523-.067-1.058-.078-1.582.039-.21.289-.226.578-.32.847.637-.699.887-.742 1.902-.886m7.125 3.61c-.289.23-.316.452-1.18.714-.624.148-.98-.102-1.277-.441.453.125.524.464 1.723.085Zm-2.601.148q-.31.856-.668 1.695c-.54.637-.309.273-1.121 1.262.261-.403.601-.786.773-1.204.125-.273.281-.566.348-.808-.215-.11-.653-.117-.715-.078-.719.422-.848.875-1.274 1.312.305-.492.57-1.031.926-1.476.043-.055.309-.067.469-.102-.254-.043-.719-.133-.758-.129-.469.113-.73.524-1.082.793.254-.363.488-.75.813-1.066.03-.035.906.043 1.355.222l.012.18.254.102.195-.48Zm-5.707 3.468c-.117-.039-1.145-.172-1.145-.14-.39.28-.45.547-.441.78.652-.644.629-.648 1.586-.64m-.782-4.632s.743-.11.727-.04c-.055.258.09.883.105.797l-.414.336c.868-.437 1.786-.347 2.715-.414 0 0-.781-.219-.734-.222.176-.028-.047-.817-.106-.836.149-.051.293-.086.446-.125-1.121-.293-1.77-.122-2.739.503"/>
    <path fill-rule="evenodd" d="m28.426 17.488-.164.082c-.024-.48-.54-.445-.977-.453l-.36-.086c.114.102.446.094.313.313-.113.062-.168.32-.23.543l-.195.008 1.035.406.222.035.528-.285Zm0 0"/>
    <path fill="#FFF" fill-rule="evenodd" d="M23.523 17.164c-.082-.168-.5-.14-.593-.035-.07.086-.004.644.093.547.133-.121.313-.168.528-.16a.66.66 0 0 0-.028-.352m4.016.828c.04-.027.121-.308.098-.39-.055-.196-.446-.157-.446-.157-.093.059-.18.364-.14.461.012.086.426.117.488.086"/>
    <path fill-rule="evenodd" d="m10.887 27.602.246.023c1.46.719 3.86 1.781 7.336 1.207l.547.86c-1.532.742-3.18.57-4.72.624Zm-2.094-5.66.73 3.066c1.954 1.222 5.297 2.625 8.082 2.512l-.613-1.415c-5.816-1.234-6.308-2.796-8.199-4.164m1.82-6.285c.352 2.38.832 4.184 2.899 5.688 1.265.914 2.523 1.82 4.054 2.57 0 0-.136.7-.246.684-4.554-.504-7.886-4.278-8.289-6.004.39-1.32.953-2.145 1.582-2.938m2.188-1.347c.601 2.636 2.047 5.304 3.484 7.726.531.668.668.961 1.48 1.371 1.098.348 1.872.258 2.669.207-.215-.406-.41-.828-.66-1.207-1.786-1.414-.958-2.695-.489-3.508-.988-.25-2.305-.785-2.484-1.488-.293-2.262-.145-2.984.148-4.148-1.344.285-2.707.562-4.148 1.05Zm0 0"/>
    <path fill-rule="evenodd" stroke="#000" stroke-width=".004" d="M7.867.32c-.441.29-.863.7-1.32 1.168-.762.785-1.266 1.551-2.035 2.121-.157.13-.59.344-1.133.38-.258.011-.426.054-.899-.005-.414-.226-.808-.078-1.195.38-.422.609-.96 1.765-1.183 2.491-.457 1.856.714 3.383 1.836 4.56.996.976 1.574 1.581 1.984 2.476.308.582.539 1.375.789 1.933.09.18.07.18.312.23.524.114 1.243.114 1.891.169q.512.008 1.024-.043c.5-.094 1.09-.188 1.578-.356.48-.12.91-.285 1.297-.437-.051.172-.418.332-.555.547-1.309 1.875-1.668 3.543-1.442 6.175.13 1.168.399 2.13.801 3.239.184.504.578 1.308.953 1.84 1.125 1.585 3.63 3.617 7.121 4.398a5 5 0 0 0 1.946-.133c1.726-.523 5.238-1.758 5.238-1.758s-3.117.258-4.547.117c-.328-.05-.691-.07-.922-.296-.043-.047-.183-.332-.09-.332.125-.004.48-.149 1.024-.2-1.164-.125-1.149-.125-1.235-.336a13 13 0 0 0-.546-1.18c.515.044 1.652.106 2.039-.292 0 0-.672.082-1.27.008-.2-.024-.543-.145-.644-.18-.266-.106-.485-.14-.536-.203-.097-.238-.16-.317-.27-.637-.151-.418-.163-.883-.194-1.312.39.48.886.886 1.543 1.093.011-.02.851.364 1.464.168l.13-.043c0 .012-.407.04-.56-.039-1.241-.527-1.429-.992-1.628-1.222l-.54-.805c.165-.328.255-.34.473-.344.653.078.942.13 1.34.035.27.555.34 1.114.957 1.52 2.043.601 2.485-.184 2.98-.88 1.473 1.08 3.868 1.411 5.528.02 2.117-2.449 2.785-6.304 2.598-6.523-.266-.445-.61-.91-.91-.844-1.055.29-1.446.825-2.5.703.125-.007.336-.011.34-.023.078-.887-.008-1.32-.047-1.395-.32-.703-.739-1.445-1.028-1.996-.078-.113-.297-.988-.668-1.332a33 33 0 0 1-.547-.496l-.035.38s.153.023.211.26c.219.891 1.336 3 1.418 3.102.395.637.04 1.434.34 1.883.031.055.613-.008 1.066.02.746-.16.715-.489 1.36-.54.433-.03.476.786.472.848-.082.899-.355 1.942-.777 2.899-.867 1.676-1.844 3.183-3.223 3.394-1.687.293-2.562-.445-3.476-.914l-.352.297c-1.187 1.184-2.601 1.078-3.175-.465-.286-.601-.66-.968-.985-1.48l-1.695 1.219c-.145.293-.317.75-.528 1.261-.148.356-.27.965-.261 1.473-.219.371.754 1.875 1.367 2.793l.531.77c.121.316.39.593.406.628 1.137 1.485-1.437 1.145-1.972 1.055-1.051-.168-2.078-.605-3.043-1.195l-.168-.102c-1.149-.723-2.207-1.648-3.106-2.562-.535-.61-1.043-1.852-1.421-2.735-.567-2.117-1.376-5.789.82-8.574.14-.156.289-.426.418-.477a6 6 0 0 1 2.12-.906l-.077-.496c-.38.086-1.66.555-2.024.75-.824.238-1.504.488-2.554.75a4 4 0 0 1-1.004 0c-.754-.105-2.043-.012-2.125-.086-.508-.715-.649-1.992-1.117-2.676l-.004-.007-.004-.004c-.274-.367-.59-.664-.903-.977-1.12-1.11-2.078-2.183-2.343-3.32-.067-.336-.239-.684-.149-1.68v-.004l.004-.004c.266-.93.703-1.683 1.45-2.441.773.008 1.538.027 2.132.14.27.047.844.122 1.43.34 1.484.551 3.445 1.465 3.445 1.465-1.469-.812-3.117-1.863-4.16-2.078-.156-.02-.25-.09-.297-.215 1.566-.918 1.852-2 2.883-2.972.469-.203.652-.309 1.05-.352 3.7.582 6.024 2.055 7.868 3.04.75.41 1.426.718 2.074 1.085.57.188 2.285 1.484 2.785 2.18.516 1.082.887 2.242 1.227 3.367.242 1.137.457 1.601.457 1.601s-.207-.953-.176-1.124c.219.078.723.238.934.214 0 0-.942-.488-1.063-.914-.394-1.379-.793-3.523-.898-3.636-.301-.38-1.559-1.34-2.328-1.782-.29-.168-.446-.273-.461-.351.246-.246.55-.574.824-.785.262-.2.5-.422.863-.563 1.602-.719 2.516.281 2.73.078 0 0-.34-.394-.19-.332.16.086.667.188.726.238.582.458 2.105 2.125 3.023 3.883.223.434.313.715.207 1.235q-.105.585-.293 1.148c-.101.234-.672 1.82-.668 2.035-.117.871.371 1.961.371 1.961.008-.293-.015-.453.012-.664l.031-.379s-.02-.101-.015-.14c.023-.262.086-.48.105-.633.184-1.137.504-1.957.863-2.953.11-.254.25-.395.243-.586.008-.34-.297-.793-.52-1.239a12 12 0 0 0-.836-1.488c-.793-1.14-1.469-2.031-2.71-2.59-.344-.156-1.708-.304-2.184-.215-.567.118-1.063.239-1.453.489-.618.394-1.102 1.004-1.672 1.367-1.254-.633-1.864-1.102-1.977-1.164a47 47 0 0 0-2.61-1.309C13.38 1.555 10.504.523 7.872.32Zm16.094 23.461c-.773-.605-1.43-1.23-1.86-1.875-.136.758-.648 1.293-1.042 1.828-.079.121-.137.293.25.832.105.141.48.168.738.153-.262-.196-.656-.403-.719-.582.453.312.875.398 1.258.351.09-.011.195-.101.277-.246.172-.363.305-.453.438-.55l.308.386Zm0 0"/>
</svg>
