<svg xmlns="http://www.w3.org/2000/svg" width="20.57" height="24">
    <!-- Origin: https://www.iconfinder.com/icons/1608662/database_icon -->
    <path d="M10.285 10.285c2.113 0 4.098-.187 5.934-.578 1.84-.383 3.289-.945 4.351-1.695v2.273q0 .925-1.379 1.715c-.918.527-2.168.941-3.75 1.254q-2.373.459-5.156.46-2.783-.001-5.156-.46c-1.582-.313-2.832-.727-3.75-1.254Q0 11.21 0 10.285V8.012c1.063.75 2.512 1.312 4.352 1.695 1.836.39 3.82.578 5.933.578m0 10.29c2.113 0 4.098-.196 5.934-.579q2.759-.576 4.351-1.703v2.281q0 .92-1.379 1.711c-.918.524-2.168.945-3.75 1.25-1.582.313-3.3.465-5.156.465s-3.574-.152-5.156-.465c-1.582-.305-2.832-.726-3.75-1.25Q0 21.494 0 20.575v-2.282q1.593 1.127 4.352 1.703c1.836.383 3.82.578 5.933.578m0-5.15c2.113 0 4.098-.187 5.934-.57 1.84-.39 3.289-.953 4.351-1.703v2.274q0 .926-1.379 1.719c-.918.523-2.168.945-3.75 1.25q-2.373.461-5.156.46-2.783.001-5.156-.46c-1.582-.305-2.832-.727-3.75-1.25Q0 16.353 0 15.425v-2.273c1.063.75 2.512 1.313 4.352 1.703 1.836.383 3.82.57 5.933.57m0-15.425c1.856 0 3.574.152 5.156.465 1.582.305 2.832.726 3.75 1.25q1.379.791 1.38 1.71v1.72q-.002.926-1.38 1.71-1.377.792-3.75 1.254-2.373.464-5.156.465-2.783 0-5.156-.465-2.373-.462-3.75-1.254Q0 6.071 0 5.145v-1.72q0-.919 1.379-1.71C2.297 1.19 3.547.77 5.129.465 6.71.152 8.429 0 10.285 0m0 0" style="fill:#747475;fill-opacity:1"/>
</svg>
