<?xml version="1.0" encoding="UTF-8"?>
<svg xmlns="http://www.w3.org/2000/svg" xmlns:xlink="http://www.w3.org/1999/xlink" width="32px" height="29px" viewBox="0 0 32 29" version="1.1">
    <!-- Origin: https://www.getdbt.com/brand-guidelines -->
    <path style=" stroke:none;fill-rule:nonzero;fill:rgb(100%,41.176471%,29.019609%);fill-opacity:1;" d="M 27.574219 1.207031 C 28.25 1.863281 28.691406 2.726562 28.796875 3.667969 C 28.796875 4.0625 28.691406 4.324219 28.457031 4.824219 C 28.222656 5.320312 25.332031 10.355469 24.472656 11.742188 C 23.980469 12.554688 23.71875 13.527344 23.71875 14.472656 C 23.71875 15.417969 23.980469 16.386719 24.472656 17.199219 C 25.332031 18.589844 28.222656 23.652344 28.457031 24.148438 C 28.691406 24.644531 28.796875 24.882812 28.796875 25.277344 C 28.691406 26.222656 28.277344 27.085938 27.597656 27.714844 C 26.949219 28.394531 26.085938 28.84375 25.175781 28.921875 C 24.785156 28.921875 24.527344 28.816406 24.058594 28.582031 C 23.585938 28.34375 18.484375 25.511719 17.105469 24.644531 C 17.003906 24.59375 16.894531 24.515625 16.769531 24.464844 L 9.945312 20.398438 C 10.101562 21.710938 10.671875 22.972656 11.613281 23.886719 C 11.792969 24.070312 11.980469 24.226562 12.183594 24.386719 C 12.027344 24.464844 11.847656 24.542969 11.691406 24.644531 C 10.3125 25.511719 5.285156 28.421875 4.789062 28.660156 C 4.296875 28.894531 4.058594 29 3.644531 29 C 2.707031 28.894531 1.847656 28.476562 1.222656 27.792969 C 0.546875 27.136719 0.101562 26.273438 0 25.332031 C 0.0234375 24.9375 0.132812 24.542969 0.335938 24.203125 C 0.574219 23.703125 3.464844 18.640625 4.324219 17.253906 C 4.816406 16.441406 5.078125 15.496094 5.078125 14.523438 C 5.078125 13.554688 4.816406 12.609375 4.324219 11.796875 C 3.464844 10.355469 0.546875 5.296875 0.335938 4.796875 C 0.128906 4.457031 0.0234375 4.0625 0 3.667969 C 0.101562 2.722656 0.519531 1.863281 1.199219 1.207031 C 1.84375 0.523438 2.703125 0.105469 3.640625 0 C 4.03125 0.0234375 4.421875 0.132812 4.785156 0.339844 C 5.203125 0.523438 8.875 2.675781 10.828125 3.828125 L 11.269531 4.089844 C 11.425781 4.191406 11.558594 4.269531 11.664062 4.324219 L 11.871094 4.457031 L 18.824219 8.601562 C 18.667969 7.027344 17.859375 5.585938 16.609375 4.613281 C 16.765625 4.535156 16.945312 4.457031 17.101562 4.355469 C 18.480469 3.488281 23.507812 0.550781 24.003906 0.339844 C 24.339844 0.132812 24.734375 0.0234375 25.148438 0 C 26.058594 0.105469 26.917969 0.523438 27.570312 1.207031 Z M 14.761719 16.363281 L 16.246094 14.867188 C 16.453125 14.65625 16.453125 14.347656 16.246094 14.136719 L 14.761719 12.640625 C 14.554688 12.429688 14.242188 12.429688 14.035156 12.640625 L 12.550781 14.136719 C 12.339844 14.347656 12.339844 14.65625 12.550781 14.867188 L 14.035156 16.363281 C 14.214844 16.542969 14.554688 16.542969 14.761719 16.363281 Z M 27.574219 1.207031 C 28.25 1.863281 28.691406 2.726562 28.796875 3.667969 C 28.796875 4.0625 28.691406 4.324219 28.457031 4.824219 C 28.222656 5.320312 25.332031 10.355469 24.472656 11.742188 C 23.980469 12.554688 23.71875 13.527344 23.71875 14.472656 C 23.71875 15.417969 23.980469 16.386719 24.472656 17.199219 C 25.332031 18.589844 28.222656 23.652344 28.457031 24.148438 C 28.691406 24.644531 28.796875 24.882812 28.796875 25.277344 C 28.691406 26.222656 28.277344 27.085938 27.597656 27.714844 C 26.949219 28.394531 26.085938 28.84375 25.175781 28.921875 C 24.785156 28.921875 24.527344 28.816406 24.058594 28.582031 C 23.585938 28.34375 18.484375 25.511719 17.105469 24.644531 C 17.003906 24.59375 16.894531 24.515625 16.769531 24.464844 L 9.945312 20.398438 C 10.101562 21.710938 10.671875 22.972656 11.613281 23.886719 C 11.792969 24.070312 11.980469 24.226562 12.183594 24.386719 C 12.027344 24.464844 11.847656 24.542969 11.691406 24.644531 C 10.3125 25.511719 5.285156 28.421875 4.789062 28.660156 C 4.296875 28.894531 4.058594 29 3.644531 29 C 2.707031 28.894531 1.847656 28.476562 1.222656 27.792969 C 0.546875 27.136719 0.101562 26.273438 0 25.332031 C 0.0234375 24.9375 0.132812 24.542969 0.335938 24.203125 C 0.574219 23.703125 3.464844 18.640625 4.324219 17.253906 C 4.816406 16.441406 5.078125 15.496094 5.078125 14.523438 C 5.078125 13.554688 4.816406 12.609375 4.324219 11.796875 C 3.464844 10.355469 0.546875 5.296875 0.335938 4.796875 C 0.128906 4.457031 0.0234375 4.0625 0 3.667969 C 0.101562 2.722656 0.519531 1.863281 1.199219 1.207031 C 1.84375 0.523438 2.703125 0.105469 3.640625 0 C 4.03125 0.0234375 4.421875 0.132812 4.785156 0.339844 C 5.203125 0.523438 8.875 2.675781 10.828125 3.828125 L 11.269531 4.089844 C 11.425781 4.191406 11.558594 4.269531 11.664062 4.324219 L 11.871094 4.457031 L 18.824219 8.601562 C 18.667969 7.027344 17.859375 5.585938 16.609375 4.613281 C 16.765625 4.535156 16.945312 4.457031 17.101562 4.355469 C 18.480469 3.488281 23.507812 0.550781 24.003906 0.339844 C 24.339844 0.132812 24.734375 0.0234375 25.148438 0 C 26.058594 0.105469 26.917969 0.523438 27.570312 1.207031 Z M 14.761719 16.363281 L 16.246094 14.867188 C 16.453125 14.65625 16.453125 14.347656 16.246094 14.136719 L 14.761719 12.640625 C 14.554688 12.429688 14.242188 12.429688 14.035156 12.640625 L 12.550781 14.136719 C 12.339844 14.347656 12.339844 14.65625 12.550781 14.867188 L 14.035156 16.363281 C 14.214844 16.542969 14.554688 16.542969 14.761719 16.363281 Z M 14.761719 16.363281 "/>
    <path style=" stroke:none;fill-rule:nonzero;fill:rgb(100%,41.176471%,29.019609%);fill-opacity:1;" d="M 31.585938 23.042969 L 31.152344 24.253906 L 30.996094 24.253906 L 30.566406 23.042969 L 30.566406 24.253906 L 30.292969 24.253906 L 30.292969 22.601562 L 30.632812 22.601562 L 31.074219 23.832031 L 31.515625 22.601562 L 31.859375 22.601562 L 31.859375 24.253906 L 31.585938 24.253906 Z M 31.585938 23.042969 "/>
    <path style=" stroke:none;fill-rule:nonzero;fill:rgb(100%,41.176471%,29.019609%);fill-opacity:1;" d="M 30.050781 22.847656 L 29.601562 22.847656 L 29.601562 24.253906 L 29.324219 24.253906 L 29.324219 22.847656 L 28.871094 22.847656 L 28.871094 22.601562 L 30.050781 22.601562 Z M 30.050781 22.847656 "/>
</svg>
