<svg xmlns="http://www.w3.org/2000/svg" width="32" height="32">
    <title>Greenplum</title>
    <!-- Origin: https://www.vectorlogo.zone/logos/greenplum/greenplum-icon.svg -->
    <path fill="#80BC00" d="M23.602 7.55c-4.676-4.066-11.75-3.628-15.887.977-4.14 4.602-3.832 11.684.695 15.903 1.059.957 1.957 1.418 2.75 1.418 1.535 0 2.684-1.715 4.164-3.88a34 34 0 0 1 2.957-3.94 35 35 0 0 1 3.602-3.352c1.898-1.602 3.398-2.867 3.422-4.278.015-.859-.547-1.789-1.711-2.843Zm-4.95 6.81a18 18 0 0 0-2.054 1.867 19 19 0 0 0-1.672 2.28c-.762 1.145-1.293 1.97-2.016 1.97a1.04 1.04 0 0 1-.668-.301 5.62 5.62 0 0 1-.281-7.817 5.62 5.62 0 0 1 7.8-.543.98.98 0 0 1 .391.762c-.039.578-.644 1.082-1.5 1.781M16.004 0C7.172-.004.004 7.156 0 15.992S7.156 31.996 15.992 32 31.996 24.844 32 16.008 24.844.004 16.008 0m10.09 25.074c-5.016 5.57-13.594 6.02-19.168 1-5.63-5-6.164-13.597-1.196-19.25C10.7 1.172 19.301.594 24.977 5.527c5.68 4.942 6.3 13.54 1.39 19.243Zm0 0"/>
</svg>
