<svg xmlns="http://www.w3.org/2000/svg" width="32" height="32">
    <title>Microsoft SQL Server</title>
    <!-- Origin: https://github.com/pheralb/svgl/blob/main/static/library/sql-server.svg -->
    <path fill="#CFD8DC" d="M15.387 7.516c-1.086-1.63-1.32-3.813-1.375-4.711-2.762.601-5.508 1.672-5.352 2.46.02.102.145.223.352.337l-.325.582c-.398-.223-.62-.48-.68-.786-.179-.894.833-1.703 3.095-2.472a27 27 0 0 1 3.168-.852l.394-.082v.406c0 .028.02 2.86 1.281 4.75ZM16.5 28.664h-.164c-5.465 0-11.54-1.715-12.262-4.586-.437-1.75.996-3.687 4.145-5.598l.344.57c-2.829 1.72-4.196 3.446-3.84 4.872.62 2.488 6.386 4.043 11.433 4.078.606-.898 3.832-6.176 1.989-13.25l.644-.168c2.098 8.063-2.144 13.89-2.187 13.95Zm0 0"/>
    <path fill="#CFD8DC" d="M6.621 26.203c-.36 0-.535-.039-.566-.047a.34.34 0 0 1-.246-.23.34.34 0 0 1 .09-.328c.05-.047 4.8-4.805 5.44-8.653l.657.11c-.55 3.308-3.809 7.082-5.105 8.472 1.293-.078 4.558-.683 10.824-4.187-4.89-.54-5.664-4.453-5.672-4.496l.656-.117c.028.164.817 4.007 6.164 4.007.153 0 .285.102.328.246a.34.34 0 0 1-.16.375c-7.488 4.34-11.12 4.848-12.41 4.848"/>
    <path fill="#CFD8DC" d="M9.684 27.8a.34.34 0 0 1-.32-.23.34.34 0 0 1 .124-.375c.024-.02 1.211-.894 2.473-2.816a13 13 0 0 1-1.465-.762c-.59-.351-1.043-.734-1.375-1.125-1.715.453-3.293.63-4.68.512l.055-.664c1.25.105 2.672-.04 4.215-.426-1.05-1.793-.09-3.57-.074-3.594l.582.32c-.043.083-.844 1.583.168 3.094 1.465-.425 3.031-1.047 4.648-1.855a21 21 0 0 0 .817-4.184.34.34 0 0 1 .472-.273c.02.012 2.176.992 3.735 1.637a.331.331 0 0 1 .063.582 42 42 0 0 1-4.52 2.695c-.403 1.3-.954 2.55-1.637 3.73 2.465.922 4.61.934 4.637.934a.334.334 0 0 1 .16.629c-3.024 1.68-7.844 2.152-8.047 2.172Zm2.921-3.155a14 14 0 0 1-1.882 2.351c1.332-.191 3.664-.625 5.605-1.422a16 16 0 0 1-3.723-.93m-2.761-2.359c.265.266.59.52.996.762.488.297.984.547 1.476.758a17.6 17.6 0 0 0 1.43-3.047 27.4 27.4 0 0 1-3.902 1.527m5.625-6.066a23 23 0 0 1-.61 3.234 42 42 0 0 0 3.375-2.02 110 110 0 0 1-2.765-1.214m-3.52-9.153a.33.33 0 0 1-.215-.078C10.66 6.07 9.398 4.2 9.344 4.118a.325.325 0 0 1 .027-.411.34.34 0 0 1 .41-.066c.004 0 .625.257 4.809.953a.34.34 0 0 1 .262.218.34.34 0 0 1-.07.336 7.7 7.7 0 0 1-2.716 1.899.4.4 0 0 1-.117.02m-1.52-2.57c.423.566 1.028 1.331 1.583 1.847a7.5 7.5 0 0 0 1.828-1.2c-1.723-.292-2.77-.503-3.41-.648"/>
    <path fill="#B71C1C" d="M14.563 16.266a.33.33 0 0 1-.247-.11.35.35 0 0 1-.086-.258c.196-1.832-2.617-2.57-2.644-2.574a.34.34 0 0 1-.242-.234.34.34 0 0 1 .086-.324c.14-.137 3.43-3.399 7.554-5.192a.334.334 0 0 1 .457.375c-.789 3.828-4.472 8.028-4.628 8.203a.31.31 0 0 1-.25.114M12.3 12.859c.793.297 2.172.98 2.523 2.235.965-1.203 3.028-3.98 3.797-6.625-2.922 1.41-5.383 3.531-6.316 4.39"/>
    <path fill="#B71C1C" d="m8.719 18.906-.317-.586c1.254-.68 2.692-1.922 3.871-3.37-1 .687-1.574 1.16-1.593 1.171l-.426-.512c.023-.02 1.176-.964 3.086-2.144.523-.848.93-1.715 1.137-2.547a6 6 0 0 0 .09-.41c-1.286-.457-2.47-.727-3.282-.848a.34.34 0 0 1-.27-.215.35.35 0 0 1 .07-.34c.06-.058 1.411-1.511 3.106-2.308a.33.33 0 0 1 .387.074c.043.05.957 1.078.727 3.203q1.202.47 2.328 1.102c1.84-.828 3.926-1.57 6.152-2.02a.34.34 0 0 1 .32.11.34.34 0 0 1 .055.336c-.863 2.222-3.191 4.597-3.289 4.695a.34.34 0 0 1-.5-.027c-.742-.938-1.719-1.715-2.773-2.348a37 37 0 0 0-3.79 2.031c-1.343 2.102-3.378 4.035-5.09 4.953m9.61-7.308c.86.554 1.66 1.207 2.324 1.964.551-.597 1.875-2.113 2.63-3.613-1.77.406-3.442.996-4.954 1.649m-3.129-.852a8.3 8.3 0 0 1-.723 2.043q1.186-.68 2.41-1.266a17 17 0 0 0-1.687-.773m-3.168-1.637c.742.149 1.653.383 2.63.727.1-1.23-.235-1.98-.434-2.317-.918.48-1.72 1.153-2.196 1.59"/>
    <path fill="#B71C1C" d="M12.031 12.336c0 2.918-2.433 5.238-4.187 6.93-.293.285-1.285.332-1.285.332.246-.254.527-.52.828-.805 1.664-1.613 3.98-3.82 3.98-6.457 0-3.129-1.262-4.363-2.254-5.348-.441-.449-.812-.875-1.039-1.394l.203-.086c.23.101.489.215.692.297.16.234.37.46.617.707 1.023 1.023 2.445 2.422 2.445 5.824"/>
    <path fill="#B71C1C" d="M28.621 13.195s-.402.059-.512.07c-5.843.65-11.87 2.329-15.316 3.708-1.246.5-2.54 1.105-3.719 1.789-.008.004-.015.004-.027.011-.695.399-2.383 1.227-3.746 1.954 2-2.13 5.746-3.766 7.238-4.368 3.383-1.351 9.188-2.988 14.899-3.683-.672-.79-2.32-2.457-5.555-3.696-1.899-.734-4.774-1.144-7.317-1.511-4.039-.582-6.34-.969-6.558-2.067a1 1 0 0 1 .086-.656c.219.363.535.613.742.762.098.066.172.105.195.12l.008.005c.95.5 3.5.867 5.625 1.172 2.574.375 5.492.793 7.453 1.547 4.582 1.765 6.16 4.296 6.227 4.402z"/>
</svg>
