<svg xmlns="http://www.w3.org/2000/svg" width="32" height="32">
    <title>MongoDB</title>
    <!-- Origin: https://www.vectorlogo.zone/logos/mongodb/mongodb-icon.svg -->
    <path fill="#599636" d="m15.898.09.856 1.601c.191.297.398.555.644.801a21 21 0 0 1 2.004 2.27c1.446 1.894 2.422 4.008 3.121 6.289.418 1.386.641 2.824.66 4.27.07 4.324-1.41 8.034-4.398 11.12q-.733.735-1.57 1.34c-.293 0-.434-.226-.559-.433a3.7 3.7 0 0 1-.437-1.254c-.102-.524-.172-1.047-.137-1.586v-.246C16.055 24.21 15.797.21 15.902.09"/>
    <path fill="#6CAC48" d="M15.898.031c-.035-.066-.07-.011-.101.02.015.351-.106.664-.3.96-.208.294-.485.52-.763.766-1.554 1.34-2.773 2.961-3.75 4.778-1.3 2.441-1.968 5.054-2.16 7.808-.086.992.313 4.496.625 5.504.856 2.688 2.39 4.934 4.375 6.89a21 21 0 0 0 1.555 1.321c.152 0 .172-.137.21-.242q.1-.335.153-.68l.352-2.613Zm0 0"/>
    <path fill="#C2BFBF" d="M16.754 28.844c.035-.399.226-.73.433-1.063-.207-.086-.363-.258-.488-.453a3.4 3.4 0 0 1-.258-.574c-.242-.73-.293-1.5-.367-2.246v-.457c-.086.07-.101.664-.101.75q-.077 1.19-.317 2.355c-.05.313-.086.625-.277.907 0 .035 0 .07.016.12.312.926.398 1.864.453 2.825v.351c0 .418-.02.328.328.47.14.054.297.07.437.175.106 0 .121-.09.121-.16l-.05-.574v-1.606c-.02-.277.035-.555.07-.816m0 0"/>
</svg>
