<svg xmlns="http://www.w3.org/2000/svg" width="32" height="32">
    <title>MySQL</title>
    <!-- Origin: https://www.vectorlogo.zone/logos/mysql/mysql-icon.svg -->
    <path fill="#00678C" fill-rule="evenodd" d="M29.477 24.926c-1.743-.047-3.09.129-4.223.605-.324.13-.852.13-.89.543.171.168.19.453.347.692.262.433.715 1.015 1.133 1.32l1.39.992c.852.52 1.805.824 2.633 1.344.477.3.957.691 1.438 1.015.242.172.39.454.695.563v-.066c-.152-.196-.195-.473-.348-.692l-.656-.629a10.3 10.3 0 0 0-2.258-2.183c-.699-.477-2.222-1.125-2.504-1.922l-.043-.051c.477-.05 1.043-.215 1.5-.344.739-.195 1.414-.152 2.176-.347l1.043-.301v-.195c-.39-.391-.672-.91-1.086-1.274a29 29 0 0 0-3.59-2.664c-.68-.43-1.547-.715-2.265-1.078-.262-.133-.696-.195-.852-.414-.39-.477-.605-1.102-.89-1.664l-1.782-3.766c-.394-.84-.633-1.687-1.11-2.465-2.241-3.675-4.683-5.906-8.425-8.09-.805-.453-1.762-.648-2.777-.886l-1.637-.086c-.348-.153-.691-.563-1-.758C4.258 1.344 1.055-.34.145 1.883c-.59 1.406.867 2.789 1.363 3.504.37.496.851 1.058 1.11 1.62.148.372.195.759.35 1.15.348.948.673 2.011 1.13 2.898.246.453.5.93.808 1.34.172.242.477.347.543.738-.308.433-.328 1.078-.5 1.62-.785 2.442-.48 5.47.63 7.274.35.54 1.167 1.727 2.284 1.274.98-.39.762-1.621 1.043-2.707.067-.254.024-.43.153-.602v.047l.894 1.797c.676 1.059 1.852 2.16 2.828 2.898.524.387.934 1.059 1.586 1.297v-.066h-.039c-.133-.192-.328-.281-.504-.434q-.617-.598-1.129-1.297c-.914-1.207-1.718-2.55-2.437-3.933-.352-.672-.656-1.406-.934-2.078-.133-.258-.133-.649-.351-.778-.325.477-.805.887-1.047 1.47-.41.929-.457 2.077-.606 3.265-.09.023-.05 0-.09.05-.695-.175-.933-.886-1.195-1.492-.652-1.539-.762-4-.195-5.773.152-.457.805-1.887.543-2.317-.13-.41-.567-.652-.805-.972a8.4 8.4 0 0 1-.781-1.387c-.524-1.21-.785-2.55-1.352-3.762-.265-.562-.718-1.144-1.086-1.664-.414-.586-.87-.996-1.199-1.687-.11-.246-.262-.63-.086-.89.043-.173.13-.24.305-.278.281-.246 1.086.062 1.367.191.809.328 1.48.63 2.156 1.082.305.215.633.625 1.024.735h.457c.695.152 1.48.05 2.133.246 1.152.367 2.199.906 3.136 1.492a19.26 19.26 0 0 1 6.79 7.394c.257.5.367.954.609 1.473.457 1.059 1.023 2.14 1.48 3.18.457 1.015.89 2.054 1.543 2.898.328.453 1.633.692 2.219.93.437.195 1.113.367 1.504.605.738.453 1.48.973 2.172 1.473.351.258 1.437.797 1.504 1.23ZM7.28 6.133a3.4 3.4 0 0 0-.89.105v.051h.043c.175.344.476.582.699.887l.5 1.039.043-.05c.3-.216.457-.563.457-1.08-.13-.155-.153-.304-.266-.452-.129-.219-.41-.328-.586-.5m0 0"/>
</svg>
