<svg xmlns="http://www.w3.org/2000/svg" width="32" height="32">
    <title>Oracle</title>
    <!-- Origin: https://www.vectorlogo.zone/logos/oracle/oracle-icon.svg -->
    <path fill="#E30613" d="M-3.2-3.2h38.4v38.4H-3.2z"/>
    <path fill="#FFF" d="M10.102 26.102C4.465 26.102 0 21.527 0 16 0 10.363 4.574 5.898 10.102 5.898h11.796C27.535 5.898 32 10.473 32 16c0 5.637-4.574 10.102-10.102 10.102Zm11.586-3.618c3.613 0 6.593-2.976 6.593-6.593 0-3.61-2.98-6.59-6.593-6.59h-11.27c-3.617 0-6.594 2.98-6.594 6.59 0 3.617 2.98 6.593 6.594 6.593Zm0 0"/>
</svg>
