<svg xmlns="http://www.w3.org/2000/svg" width="32" height="32">
    <title>PostgreSQL</title>
    <!-- Origin: https://www.vectorlogo.zone/logos/postgresql/postgresql-icon.svg -->
    <path stroke="#000" stroke-width="2.687" d="M23.727 23.297c.203-1.695.144-1.945 1.406-1.672l.32.031c.973.043 2.242-.16 3-.504 1.606-.746 2.559-1.992.977-1.664-3.61.746-3.875-.476-3.875-.476C29.37 13.348 30.969 6.16 29.59 4.398 25.836-.398 19.332 1.871 19.223 1.93l-.032.008c-.714-.149-1.5-.239-2.414-.25-1.636-.024-2.875.43-3.816 1.14 0 0-11.598-4.777-11.059 6.012.114 2.293 3.29 17.375 7.075 12.812a72 72 0 0 1 2.722-3.078 3.5 3.5 0 0 0 2.293.586l.067-.055a2.4 2.4 0 0 0 .027.649c-.977 1.09-.688 1.277-2.64 1.68-1.973.41-.813 1.132-.06 1.32.919.23 3.044.555 4.477-1.453l-.058.23c.386.309.355 2.2.414 3.555.058 1.348.144 2.613.422 3.36.273.741.601 2.66 3.16 2.124 2.144-.46 3.781-1.12 3.93-7.265"/>
    <path fill="#336791" d="M29.418 19.5c-3.613.742-3.875-.477-3.875-.477 3.816-5.664 5.414-12.851 4.035-14.613-3.754-4.797-10.254-2.527-10.363-2.465l-.035.004a13 13 0 0 0-2.414-.25c-1.633-.027-2.875.43-3.817 1.14 0 0-11.597-4.776-11.058 6.013.117 2.293 3.289 17.375 7.078 12.808a72 72 0 0 1 2.73-3.086 3.5 3.5 0 0 0 2.293.586l.067-.055a2.4 2.4 0 0 0 .027.649c-.977 1.09-.688 1.277-2.64 1.68-1.973.41-.813 1.132-.06 1.32.919.23 3.044.555 4.477-1.453l-.058.23c.386.309.652 1.992.605 3.52-.043 1.527-.074 2.574.227 3.394.297.82.601 2.664 3.164 2.125 2.137-.457 3.25-1.648 3.402-3.633.113-1.41.36-1.203.375-2.464l.203-.594c.227-1.914.04-2.531 1.356-2.242l.32.027c.973.047 2.242-.156 2.988-.504 1.606-.742 2.559-1.988.977-1.66Zm0 0"/>
    <path fill="none" stroke="#FFF" stroke-linecap="round" stroke-linejoin="round" stroke-width=".895" d="M16.016 20.586c-.098 3.555.027 7.137.375 8 .347.86 1.093 2.562 3.656 2.012 2.144-.457 2.922-1.344 3.262-3.309l.789-6.27M12.945 2.75S1.34-1.992 1.88 8.79c.113 2.296 3.289 17.374 7.074 12.812a66 66 0 0 1 2.633-2.97m7.625-16.75c-.398.126 6.457-2.503 10.352 2.473 1.375 1.762-.22 8.946-4.036 14.61"/>
    <path fill="none" stroke="#FFF" stroke-linecap="round" stroke-linejoin="bevel" stroke-width=".895" d="M25.531 18.965s.25 1.223 3.875.476c1.582-.328.63.918-.976 1.66-1.317.614-4.274.77-4.32-.074-.126-2.183 1.554-1.52 1.433-2.066-.11-.492-.863-.973-1.36-2.18-.43-1.047-5.945-9.11 1.536-7.914.273-.058-1.953-7.125-8.953-7.23-7-.102-6.778 8.605-6.778 8.605"/>
    <path fill="none" stroke="#FFF" stroke-linejoin="round" stroke-width=".895" d="M14.059 19.71c-.973 1.09-.688 1.282-2.637 1.68-1.973.41-.813 1.133-.059 1.32.918.235 3.043.556 4.477-1.452.437-.61-.004-1.586-.602-1.832-.293-.121-.68-.274-1.18.285Zm0 0"/>
    <path fill="none" stroke="#FFF" stroke-linecap="round" stroke-linejoin="round" stroke-width=".895" d="M13.992 19.691c-.097-.64.211-1.402.543-2.293.496-1.34 1.649-2.68.727-6.925-.684-3.16-5.274-.657-5.274-.227s.207 2.172-.074 4.203c-.371 2.653 1.688 4.899 4.055 4.668"/>
    <path fill="#FFF" stroke="#FFF" stroke-width=".298" d="M12.902 10.18c-.02.148.27.539.645.593.379.051.695-.253.719-.402.02-.148-.27-.305-.645-.36-.379-.054-.7.024-.719.169Zm0 0"/>
    <path fill="#FFF" stroke="#FFF" stroke-width=".148" d="M24.36 9.883c.019.148-.274.539-.65.59-.374.054-.698-.254-.718-.399-.02-.148.27-.308.649-.363.375-.05.699.027.718.172Zm0 0"/>
    <path fill="none" stroke="#FFF" stroke-linecap="round" stroke-linejoin="round" stroke-width=".895" d="M25.703 8.867c.063 1.153-.25 1.934-.289 3.156-.055 1.778.848 3.813-.516 5.852"/>
</svg>
