<?xml version="1.0" encoding="UTF-8"?>
<svg xmlns="http://www.w3.org/2000/svg" xmlns:xlink="http://www.w3.org/1999/xlink" width="24px" height="15px" viewBox="0 0 23 15" version="1.1">
<g id="surface1">
<path style=" stroke:none;fill-rule:nonzero;fill:rgb(81.568629%,18.039216%,14.509805%);fill-opacity:1;" d="M 13.652344 0.726562 L 13.652344 0.0546875 L 23.03125 0.0546875 L 23.03125 1.398438 L 13.652344 1.398438 Z M 13.652344 0.726562 "/>
<path style=" stroke:none;fill-rule:nonzero;fill:rgb(81.568629%,18.039216%,14.509805%);fill-opacity:1;" d="M 13.652344 7.398438 L 13.652344 6.777344 L 23.03125 6.777344 L 23.03125 8.019531 L 13.652344 8.019531 Z M 13.652344 7.398438 "/>
<path style=" stroke:none;fill-rule:nonzero;fill:rgb(81.568629%,18.039216%,14.509805%);fill-opacity:1;" d="M 13.652344 14.277344 L 13.652344 13.605469 L 23.03125 13.605469 L 23.03125 14.953125 L 13.652344 14.953125 Z M 13.652344 14.277344 "/>
<path style=" stroke:none;fill-rule:nonzero;fill:rgb(81.568629%,18.039216%,14.509805%);fill-opacity:1;" d="M 0 11.84375 L 0 8.792969 L 3.15625 8.792969 C 5.667969 8.792969 6.4375 8.761719 6.910156 8.636719 C 8.695312 8.160156 9.59375 6.984375 9.601562 5.121094 C 9.613281 3.777344 9.261719 2.980469 8.34375 2.277344 C 7.332031 1.488281 6.476562 1.34375 2.753906 1.34375 L 0 1.34375 L 0 0 L 2.550781 0 C 6.292969 0.0117188 7.34375 0.144531 8.613281 0.796875 C 9.59375 1.304688 10.601562 2.554688 10.84375 3.570312 C 11.257812 5.316406 10.914062 7.21875 9.976562 8.328125 C 9.574219 8.792969 8.585938 9.476562 8.171875 9.570312 C 8 9.609375 7.867188 9.652344 7.867188 9.683594 C 7.867188 9.703125 8.613281 10.800781 9.542969 12.113281 C 10.460938 13.425781 11.199219 14.574219 11.175781 14.679688 C 11.148438 14.8125 11.003906 14.84375 10.492188 14.867188 L 9.835938 14.898438 L 8.171875 12.464844 L 6.507812 10.035156 L 6.152344 10.085938 C 5.960938 10.105469 4.792969 10.136719 3.5625 10.136719 L 1.3125 10.136719 L 1.3125 14.898438 L 0 14.898438 Z M 0 11.84375 "/>
</g>
</svg>
