<svg xmlns="http://www.w3.org/2000/svg" width="32" height="32">
    <title>Teradata</title>
    <!-- Origin: https://github.com/simple-icons/simple-icons/blob/develop/icons/teradata.svg -->
    <path d="M16 0C6.664 0 0 7.531 0 16.11 0 25.11 6.664 32 16 32s16-6.89 16-15.89C32 7.53 25.336 0 16 0m-4.707 4.586h4.668v4.348h4.773v3.812h-4.773v6.961c0 2.105 1.023 3.023 2.57 3.023.563 0 1.309-.156 2.016-.421.504 1.332 1.398 2.53 2.36 3.492a9.3 9.3 0 0 1-4.692 1.293c-4.16 0-6.922-2.203-6.922-7.043Zm0 0"/>
</svg>
